<svg width="37" height="37" viewBox="0 0 37 37" fill="none" xmlns="http://www.w3.org/2000/svg">
<path d="M37 18.5C37 28.7173 28.7173 37 18.5 37C8.28273 37 0 28.7173 0 18.5C0 8.28273 8.28273 0 18.5 0C28.7173 0 37 8.28273 37 18.5Z" fill="white"/>
<path d="M10.625 22.8752C10.625 23.689 10.625 24.0959 10.7145 24.4297C10.9572 25.3355 11.6647 26.0431 12.5706 26.2858C12.9044 26.3752 13.3113 26.3752 14.125 26.3752H22.875C23.6888 26.3752 24.0956 26.3752 24.4294 26.2858C25.3352 26.0431 26.0429 25.3355 26.2856 24.4297C26.375 24.0959 26.375 23.689 26.375 22.8752" stroke="#007EC8" stroke-width="1.5" stroke-linecap="round" stroke-linejoin="round"/>
<path d="M22.4375 18.0627C22.4375 18.0627 19.5376 22.0002 18.4999 22.0002C17.4624 22.0002 14.5625 18.0627 14.5625 18.0627M18.4999 21.1252V10.6251" stroke="#007EC8" stroke-width="1.5" stroke-linecap="round" stroke-linejoin="round"/>
</svg>
