<svg width="64" height="64" viewBox="0 0 64 64" fill="none" xmlns="http://www.w3.org/2000/svg">
<circle cx="32" cy="32" r="32" fill="white"/>
<path d="M32.5 23.0625H35.3125C36.8658 23.0625 38.125 24.3217 38.125 25.875M32.5 23.0625H29.6875C28.1342 23.0625 26.875 24.3217 26.875 25.875V26.8125C26.875 28.3658 28.1342 29.625 29.6875 29.625H35.3125C36.8658 29.625 38.125 30.8842 38.125 32.4375V33.375C38.125 34.9283 36.8658 36.1875 35.3125 36.1875H32.5M32.5 23.0625V20.25M32.5 36.1875H29.6875C28.1342 36.1875 26.875 34.9283 26.875 33.375M32.5 36.1875V39" stroke="#007EC8" stroke-width="2.5" stroke-linecap="round" stroke-linejoin="round"/>
<path d="M30.5125 49.3357L26.9296 47.0762C26.0203 46.5026 25.5656 46.2159 25.061 46.1994C24.5157 46.1814 24.053 46.4565 23.0704 47.0762C21.9699 47.7701 19.7816 49.6821 18.3662 48.7703C17.5 48.2124 17.5 46.7953 17.5 43.9609V24C17.5 18.6967 17.5 16.045 19.0506 14.3975C20.6012 12.75 23.0969 12.75 28.0882 12.75H36.9117C41.9031 12.75 44.3988 12.75 45.9494 14.3975C47.5 16.045 47.5 18.6967 47.5 24V43.9609C47.5 46.7953 47.5 48.2124 46.6338 48.7703C45.2183 49.6821 43.0302 47.7701 41.9296 47.0762C41.0202 46.5026 40.5657 46.2159 40.0609 46.1994C39.5157 46.1814 39.0529 46.4565 38.0704 47.0762L34.4875 49.3357C33.5209 49.9451 33.0377 50.25 32.5 50.25C31.9623 50.25 31.4789 49.9451 30.5125 49.3357Z" stroke="#007EC8" stroke-width="2.5" stroke-linecap="round" stroke-linejoin="round"/>
</svg>
