<svg width="64" height="64" viewBox="0 0 64 64" fill="none" xmlns="http://www.w3.org/2000/svg">
<circle cx="32" cy="32" r="32" fill="white"/>
<path d="M27.674 14.7425C30.0318 13.4142 31.2107 12.75 32.5 12.75C33.7893 12.75 34.9683 13.4142 37.3261 14.7425L40.6073 16.5911C43.0548 17.97 44.2786 18.6595 44.9517 19.8125C45.625 20.9654 45.625 22.3717 45.625 25.1842V28.4407C45.625 31.2532 45.625 32.6595 44.9517 33.8126C44.2786 34.9656 43.0548 35.655 40.6073 37.0339L37.3261 38.8824C34.9683 40.2109 33.7893 40.875 32.5 40.875C31.2107 40.875 30.0318 40.2109 27.674 38.8824L24.3927 37.0339C21.9453 35.655 20.7215 34.9656 20.0483 33.8126C19.375 32.6595 19.375 31.2532 19.375 28.4407V25.1842C19.375 22.3717 19.375 20.9654 20.0483 19.8125C20.7215 18.6595 21.9453 17.97 24.3927 16.5911L27.674 14.7425Z" stroke="#007EC8" stroke-width="2.5" stroke-linejoin="round"/>
<path d="M26.875 28.0626C26.875 28.0626 28.2812 28.0626 29.6875 30.5625C29.6875 30.5625 34.1545 24.3125 38.125 23.0625" stroke="#007EC8" stroke-width="2.5" stroke-linecap="round" stroke-linejoin="round"/>
<path d="M41.6547 37.125L42.9113 43.1436C43.7187 47.0106 44.1224 48.9441 43.2931 49.8606C42.4639 50.7769 41.0238 49.9886 38.1436 48.4121L33.8808 46.0787C33.2001 45.7061 32.8598 45.5199 32.5 45.5199C32.1402 45.5199 31.7999 45.7061 31.1193 46.0787L26.8564 48.4121C23.9762 49.9886 22.5361 50.7769 21.7068 49.8606C20.8776 48.9441 21.2813 47.0106 22.0887 43.1436L23.3454 37.125" stroke="#007EC8" stroke-width="2.5" stroke-linecap="round" stroke-linejoin="round"/>
</svg>
