<svg width="64" height="64" viewBox="0 0 64 64" fill="none" xmlns="http://www.w3.org/2000/svg">
<circle cx="32" cy="32" r="32" fill="white"/>
<path d="M41.875 31.1334C41.875 30.4852 41.875 30.1612 41.9725 29.8725C42.256 29.0332 43.0034 28.7077 43.7521 28.3667C44.5938 27.9832 45.0145 27.7916 45.4315 27.7579C45.9049 27.7196 46.3791 27.8216 46.7838 28.0487C47.3202 28.3496 47.6942 28.9217 48.0773 29.3869C49.8462 31.5352 50.7304 32.6096 51.0541 33.7943C51.3153 34.7501 51.3153 35.7499 51.0541 36.7057C50.5821 38.4336 49.0909 39.882 47.9871 41.2226C47.4226 41.9083 47.1402 42.2512 46.7838 42.4513C46.3791 42.6784 45.9049 42.7804 45.4315 42.7421C45.0145 42.7084 44.5938 42.5168 43.7521 42.1333C43.0034 41.7923 42.256 41.4667 41.9725 40.6275C41.875 40.3387 41.875 40.0147 41.875 39.3666V31.1334Z" stroke="#007EC8" stroke-width="2.5"/>
<path d="M23.125 31.1336C23.125 30.3176 23.1021 29.5841 22.4423 29.0103C22.2024 28.8016 21.8842 28.6567 21.248 28.3668C20.4063 27.9836 19.9854 27.7919 19.5684 27.7582C18.3173 27.6569 17.6442 28.5108 16.9227 29.3872C15.1539 31.5356 14.2695 32.6098 13.9459 33.7944C13.6847 34.7504 13.6847 35.7502 13.9459 36.7061C14.4179 38.4339 15.9091 39.8821 17.0129 41.2229C17.7087 42.068 18.3733 42.839 19.5684 42.7424C19.9854 42.7087 20.4063 42.5169 21.248 42.1336C21.8842 41.8438 22.2024 41.6988 22.4423 41.4901C23.1021 40.9164 23.125 40.1831 23.125 39.3669V31.1336Z" stroke="#007EC8" stroke-width="2.5"/>
<path d="M47.5 28.6875V25.875C47.5 18.6263 40.7843 12.75 32.5 12.75C24.2157 12.75 17.5 18.6263 17.5 25.875V28.6875" stroke="#007EC8" stroke-width="2.5" stroke-linecap="round" stroke-linejoin="round"/>
<path d="M47.5 41.8125C47.5 50.25 40 50.25 32.5 50.25" stroke="#007EC8" stroke-width="2.5" stroke-linecap="round" stroke-linejoin="round"/>
</svg>
