<svg width="64" height="64" viewBox="0 0 64 64" fill="none" xmlns="http://www.w3.org/2000/svg">
<circle cx="32" cy="32" r="32" fill="white"/>
<path d="M46.5625 41.8125C46.5625 44.4013 44.4638 46.5 41.875 46.5C39.2862 46.5 37.1875 44.4013 37.1875 41.8125C37.1875 39.2237 39.2862 37.125 41.875 37.125C44.4638 37.125 46.5625 39.2237 46.5625 41.8125Z" stroke="#007EC8" stroke-width="2.5"/>
<path d="M27.8125 41.8125C27.8125 44.4013 25.7138 46.5 23.125 46.5C20.5362 46.5 18.4375 44.4013 18.4375 41.8125C18.4375 39.2237 20.5362 37.125 23.125 37.125C25.7138 37.125 27.8125 39.2237 27.8125 41.8125Z" stroke="#007EC8" stroke-width="2.5"/>
<path d="M37.1875 41.8125H27.8125M46.5625 41.8125H47.9935C48.4058 41.8125 48.6121 41.8125 48.7853 41.7909C50.0629 41.6318 51.0693 40.6254 51.2284 39.3478C51.25 39.1746 51.25 38.9683 51.25 38.556V33.375C51.25 26.644 45.7936 21.1875 39.0625 21.1875M13.75 16.5H32.5C35.1516 16.5 36.4774 16.5 37.3013 17.3238C38.125 18.1475 38.125 19.4734 38.125 22.125V38.0625M13.75 32.9062V37.125C13.75 38.8774 13.75 39.7536 14.1268 40.4062C14.3736 40.8338 14.7287 41.1889 15.1562 41.4356C15.8089 41.8125 16.6851 41.8125 18.4375 41.8125" stroke="#007EC8" stroke-width="2.5" stroke-linecap="round" stroke-linejoin="round"/>
<path d="M13.75 22.125H25M13.75 27.75H21.25" stroke="#007EC8" stroke-width="2.5" stroke-linecap="round" stroke-linejoin="round"/>
</svg>
