<svg width="9" height="9" viewBox="0 0 9 9" fill="none" xmlns="http://www.w3.org/2000/svg">
<path d="M8.30028 0.438109L8.30028 6.62529C8.30028 6.74147 8.25413 6.85289 8.17198 6.93504C8.08983 7.01719 7.97841 7.06335 7.86223 7.06335C7.74605 7.06335 7.63463 7.01719 7.55248 6.93504C7.47033 6.85289 7.42418 6.74147 7.42418 6.62529L7.4248 1.49426L0.746966 8.17209C0.664919 8.25414 0.553639 8.30023 0.437607 8.30023C0.321575 8.30023 0.210295 8.25413 0.128248 8.17209C0.0462007 8.09004 0.000106655 7.97876 0.000106663 7.86273C0.000106671 7.7467 0.0462008 7.63542 0.128248 7.55337L6.80608 0.875542L1.67504 0.87616C1.55887 0.87616 1.44745 0.830008 1.36529 0.747857C1.28314 0.665706 1.23699 0.554286 1.23699 0.438107C1.23699 0.321929 1.28314 0.210508 1.36529 0.128357C1.44745 0.0462064 1.55887 5.46327e-05 1.67504 5.46539e-05L7.86223 5.58656e-05C7.91978 -1.68614e-05 7.97677 0.0112641 8.02995 0.0332526C8.08313 0.055241 8.13145 0.0875052 8.17214 0.128197C8.21283 0.168888 8.2451 0.217207 8.26708 0.270387C8.28907 0.323566 8.30035 0.380562 8.30028 0.438109Z" fill="#172747"/>
</svg>
