<svg width="18" height="17" viewBox="0 0 18 17" fill="none" xmlns="http://www.w3.org/2000/svg">
<path fill-rule="evenodd" clip-rule="evenodd" d="M2.17265 0.694135C3.23752 -0.364615 4.99102 -0.17649 5.88265 1.01526L6.9869 2.48876C7.71315 3.45826 7.6484 4.81276 6.78652 5.66938L6.57827 5.87764C6.55466 5.96505 6.55226 6.05685 6.57127 6.14538C6.6264 6.50238 6.92477 7.25839 8.17427 8.50089C9.42377 9.74339 10.185 10.0409 10.5473 10.0969C10.6386 10.1152 10.7328 10.1125 10.8229 10.089L11.1799 9.73376C11.9464 8.97251 13.1224 8.82989 14.0709 9.34526L15.7421 10.2553C17.1745 11.0323 17.5359 12.9783 16.3634 14.1446L15.12 15.3801C14.728 15.7695 14.2013 16.0941 13.559 16.1545C11.9753 16.3024 8.2854 16.1134 4.40652 12.2573C0.786649 8.65751 0.0918986 5.51801 0.00352363 3.97101C-0.0402264 3.18876 0.329024 2.52726 0.799774 2.06001L2.17265 0.694135ZM4.83265 1.80188C4.38902 1.20951 3.56302 1.16226 3.09752 1.62513L1.72377 2.99013C1.43502 3.27713 1.29677 3.59388 1.31427 3.89663C1.38427 5.12601 1.94427 7.95838 5.33227 11.3271C8.88652 14.8604 12.1686 14.9663 13.4374 14.8473C13.6964 14.8236 13.9536 14.6889 14.1943 14.45L15.4368 13.2136C15.9425 12.7114 15.8314 11.7961 15.1156 11.4076L13.4444 10.4985C12.9824 10.2483 12.4416 10.3305 12.1056 10.6648L11.7075 11.0611L11.2438 10.5956C11.7075 11.0611 11.7066 11.062 11.7058 11.062L11.7049 11.0638L11.7023 11.0664L11.6961 11.0716L11.683 11.0839C11.6461 11.1182 11.6063 11.1492 11.564 11.1766C11.494 11.223 11.4013 11.2746 11.2849 11.3175C11.0486 11.4059 10.7354 11.4531 10.3486 11.3936C9.59002 11.2773 8.58465 10.7601 7.24852 9.43189C5.91327 8.10364 5.39177 7.10439 5.27452 6.34664C5.21415 5.95989 5.26227 5.64664 5.35152 5.41039C5.40064 5.27744 5.47097 5.15334 5.55977 5.04288L5.58777 5.01226L5.60002 4.99913L5.60527 4.99388L5.6079 4.99126L5.60965 4.98951L5.86165 4.73926C6.23615 4.36563 6.28865 3.74701 5.93602 3.27538L4.83265 1.80188Z" fill="#4A4A4A"/>
</svg>
