<svg width="35" height="35" viewBox="0 0 35 35" fill="none" xmlns="http://www.w3.org/2000/svg">
<rect width="35" height="35" rx="17.5" fill="#007EC8"/>
<path d="M23.1737 20.3942C22.3025 20.3942 21.4596 20.2525 20.6733 19.9975C20.5501 19.956 20.4177 19.9499 20.2913 19.98C20.1648 20.01 20.0493 20.075 19.9579 20.1675L18.8458 21.5629C16.8412 20.6067 14.9642 18.8004 13.9654 16.725L15.3467 15.5492C15.5379 15.3508 15.5946 15.0746 15.5167 14.8267C15.2546 14.0404 15.12 13.1975 15.12 12.3263C15.12 11.9437 14.8012 11.625 14.4188 11.625H11.9679C11.5854 11.625 11.125 11.795 11.125 12.3263C11.125 18.9067 16.6004 24.375 23.1737 24.375C23.6767 24.375 23.875 23.9287 23.875 23.5392V21.0954C23.875 20.7129 23.5562 20.3942 23.1737 20.3942Z" fill="white"/>
</svg>
