<svg width="44" height="44" viewBox="0 0 44 44" fill="none" xmlns="http://www.w3.org/2000/svg">
<path d="M5.48152 25.6665H10.7065C10.2115 27.5365 8.85485 30.2682 5.04152 31.2215L3.64819 31.5698V36.6665H5.48152C10.5782 36.6665 14.4832 35.2548 17.0499 32.4682C20.5149 28.7098 20.1665 23.8882 20.1482 23.8332V10.9998C20.1482 8.98317 18.4982 7.33317 16.4815 7.33317H5.48152C3.46486 7.33317 1.81485 8.98317 1.81485 10.9998V21.9998C1.81485 24.0165 3.46486 25.6665 5.48152 25.6665ZM27.4815 25.6665H32.7065C32.2115 27.5365 30.8549 30.2682 27.0415 31.2215L25.6482 31.5698V36.6665H27.4815C32.5782 36.6665 36.4832 35.2548 39.0499 32.4682C42.5149 28.7098 42.1665 23.8882 42.1482 23.8332V10.9998C42.1482 8.98317 40.4982 7.33317 38.4815 7.33317H27.4815C25.4649 7.33317 23.8149 8.98317 23.8149 10.9998V21.9998C23.8149 24.0165 25.4649 25.6665 27.4815 25.6665Z" fill="white"/>
</svg>
