<svg width="158" height="22" viewBox="0 0 158 22" fill="none" xmlns="http://www.w3.org/2000/svg">
<path d="M13.1701 21.3599L16.8901 0.359862H21.3901L17.6701 21.3599H13.1701ZM7.8138e-05 21.3599L3.69008 0.359862H8.19008L4.50008 21.3599H7.8138e-05ZM5.49008 12.4199L6.12008 8.81986H16.0801L15.4501 12.4199H5.49008ZM19.3231 21.3599L23.0131 0.359862H31.2331C32.7931 0.359862 34.0631 0.639862 35.0431 1.19986C36.0431 1.73986 36.7631 2.46986 37.2031 3.38986C37.6631 4.28986 37.8431 5.29986 37.7431 6.41986C37.6631 7.79986 37.2531 9.02986 36.5131 10.1099C35.7731 11.1899 34.7531 12.0399 33.4531 12.6599C32.1731 13.2599 30.6531 13.5599 28.8931 13.5599H25.2031L23.8231 21.3599H19.3231ZM25.8331 9.95986H29.2231C30.4231 9.95986 31.3531 9.65986 32.0131 9.05986C32.6931 8.45986 33.0631 7.64986 33.1231 6.62986C33.1831 5.80986 32.9831 5.16986 32.5231 4.70986C32.0831 4.24986 31.3331 4.01986 30.2731 4.01986H26.8831L25.8331 9.95986ZM35.8923 21.3599L39.5823 0.359862H47.6823C49.2623 0.359862 50.5523 0.629862 51.5523 1.16986C52.5523 1.70986 53.2723 2.43986 53.7123 3.35986C54.1723 4.25986 54.3523 5.24986 54.2523 6.32986C54.1923 7.66986 53.7923 8.86986 53.0523 9.92986C52.3123 10.9699 51.2923 11.7899 49.9923 12.3899C48.7123 12.9899 47.2023 13.2899 45.4623 13.2899H41.8323L40.3923 21.3599H35.8923ZM46.8723 21.3599L44.2623 12.1799H48.9723L51.8223 21.3599H46.8723ZM42.4023 10.0499H45.7923C46.9323 10.0499 47.8423 9.74986 48.5223 9.14986C49.2023 8.54986 49.5723 7.72986 49.6323 6.68986C49.6923 5.90986 49.4923 5.28986 49.0323 4.82986C48.5923 4.34986 47.8523 4.10986 46.8123 4.10986H43.4223L42.4023 10.0499ZM67.0484 21.7199C65.3084 21.7199 63.8184 21.3099 62.5784 20.4899C61.3384 19.6699 60.4184 18.5499 59.8184 17.1299C59.2184 15.6899 58.9884 14.0499 59.1284 12.2099C59.2284 10.4099 59.6084 8.75986 60.2684 7.25986C60.9484 5.75986 61.8484 4.46986 62.9684 3.38986C64.0884 2.30986 65.3984 1.47986 66.8984 0.899862C68.3984 0.299863 70.0284 -0.000137091 71.7884 -0.000137091C74.3084 -0.000137091 76.2984 0.599863 77.7584 1.79986C79.2184 2.99986 79.9984 4.65986 80.0984 6.77986H75.0884C74.9284 5.93986 74.5184 5.28986 73.8584 4.82986C73.1984 4.36986 72.2784 4.13986 71.0984 4.13986C69.6984 4.13986 68.4584 4.46986 67.3784 5.12986C66.3184 5.76986 65.4684 6.67986 64.8284 7.85986C64.2084 9.01986 63.8484 10.3899 63.7484 11.9699C63.6484 13.1899 63.7684 14.2299 64.1084 15.0899C64.4484 15.9499 64.9884 16.6099 65.7284 17.0699C66.4684 17.5099 67.3784 17.7299 68.4584 17.7299C69.5984 17.7299 70.5884 17.5299 71.4284 17.1299C72.2884 16.7099 72.9984 16.1399 73.5584 15.4199C74.1384 14.6999 74.5784 13.8899 74.8784 12.9899H69.9584L70.5584 9.62986H79.9784L77.9084 21.3599H73.7984L73.9184 18.6899H73.8584C73.3384 19.3299 72.7384 19.8799 72.0584 20.3399C71.3984 20.7799 70.6584 21.1199 69.8384 21.3599C69.0184 21.5999 68.0884 21.7199 67.0484 21.7199ZM79.3888 21.3599L83.0788 0.359862H91.1788C92.7588 0.359862 94.0488 0.629862 95.0488 1.16986C96.0488 1.70986 96.7688 2.43986 97.2088 3.35986C97.6688 4.25986 97.8488 5.24986 97.7488 6.32986C97.6888 7.66986 97.2888 8.86986 96.5488 9.92986C95.8088 10.9699 94.7888 11.7899 93.4888 12.3899C92.2088 12.9899 90.6988 13.2899 88.9588 13.2899H85.3288L83.8888 21.3599H79.3888ZM90.3688 21.3599L87.7588 12.1799H92.4688L95.3188 21.3599H90.3688ZM85.8988 10.0499H89.2888C90.4288 10.0499 91.3388 9.74986 92.0188 9.14986C92.6988 8.54986 93.0688 7.72986 93.1288 6.68986C93.1888 5.90986 92.9888 5.28986 92.5288 4.82986C92.0888 4.34986 91.3488 4.10986 90.3088 4.10986H86.9188L85.8988 10.0499ZM106.599 21.7199C104.699 21.7199 103.049 21.2999 101.649 20.4599C100.249 19.6199 99.1887 18.4699 98.4687 17.0099C97.7487 15.5299 97.4587 13.8399 97.5987 11.9399C97.7187 10.2599 98.1187 8.68986 98.7987 7.22986C99.4787 5.76986 100.389 4.49986 101.529 3.41986C102.669 2.33986 103.969 1.49986 105.429 0.899862C106.909 0.299863 108.499 -0.000137091 110.199 -0.000137091C112.099 -0.000137091 113.749 0.419863 115.149 1.25986C116.549 2.09986 117.609 3.25986 118.329 4.73986C119.049 6.19986 119.339 7.87986 119.199 9.77986C119.099 11.4599 118.699 13.0299 117.999 14.4899C117.319 15.9499 116.409 17.2199 115.269 18.2999C114.129 19.3799 112.819 20.2199 111.339 20.8199C109.879 21.4199 108.299 21.7199 106.599 21.7199ZM107.199 17.6699C108.199 17.6699 109.129 17.4799 109.989 17.0999C110.849 16.7199 111.609 16.1899 112.269 15.5099C112.949 14.8099 113.489 13.9999 113.889 13.0799C114.289 12.1399 114.519 11.1199 114.579 10.0199C114.679 8.79986 114.549 7.74986 114.189 6.86986C113.849 5.98986 113.289 5.30986 112.509 4.82986C111.749 4.32986 110.779 4.07986 109.599 4.07986C108.619 4.07986 107.689 4.26986 106.809 4.64986C105.949 5.00986 105.189 5.53986 104.529 6.23986C103.869 6.91986 103.339 7.71986 102.939 8.63986C102.539 9.55986 102.299 10.5799 102.219 11.6999C102.139 12.8999 102.279 13.9499 102.639 14.8499C102.999 15.7299 103.569 16.4199 104.349 16.9199C105.129 17.4199 106.079 17.6699 107.199 17.6699ZM126.726 21.7199C125.046 21.7199 123.626 21.3899 122.466 20.7299C121.306 20.0699 120.486 19.0999 120.006 17.8199C119.526 16.5399 119.436 14.9899 119.736 13.1699L121.986 0.359862H126.486L124.236 13.1999C124.076 14.1199 124.086 14.9099 124.266 15.5699C124.446 16.2099 124.806 16.6999 125.346 17.0399C125.886 17.3799 126.606 17.5499 127.506 17.5499C128.386 17.5499 129.156 17.3899 129.816 17.0699C130.476 16.7299 131.026 16.2399 131.466 15.5999C131.906 14.9399 132.206 14.1299 132.366 13.1699L134.646 0.359862H139.146L136.896 13.1699C136.556 15.0899 135.876 16.6899 134.856 17.9699C133.856 19.2299 132.646 20.1699 131.226 20.7899C129.826 21.4099 128.326 21.7199 126.726 21.7199ZM136.948 21.3599L140.638 0.359862H148.858C150.418 0.359862 151.688 0.639862 152.668 1.19986C153.668 1.73986 154.388 2.46986 154.828 3.38986C155.288 4.28986 155.468 5.29986 155.368 6.41986C155.288 7.79986 154.878 9.02986 154.138 10.1099C153.398 11.1899 152.378 12.0399 151.078 12.6599C149.798 13.2599 148.278 13.5599 146.518 13.5599H142.828L141.448 21.3599H136.948ZM143.458 9.95986H146.848C148.048 9.95986 148.978 9.65986 149.638 9.05986C150.318 8.45986 150.688 7.64986 150.748 6.62986C150.808 5.80986 150.608 5.16986 150.148 4.70986C149.708 4.24986 148.958 4.01986 147.898 4.01986H144.508L143.458 9.95986ZM154.69 21.5399C153.91 21.5399 153.26 21.2999 152.74 20.8199C152.24 20.3399 151.99 19.7399 151.99 19.0199C151.99 18.3199 152.24 17.7299 152.74 17.2499C153.26 16.7499 153.91 16.4999 154.69 16.4999C155.47 16.4999 156.11 16.7499 156.61 17.2499C157.13 17.7299 157.39 18.3199 157.39 19.0199C157.39 19.7199 157.13 20.3199 156.61 20.8199C156.11 21.2999 155.47 21.5399 154.69 21.5399Z" fill="#172747"/>
</svg>
