<svg width="164" height="53" viewBox="0 0 164 53" fill="none" xmlns="http://www.w3.org/2000/svg">
<g clip-path="url(#clip0_120_362)">
<path d="M47.2165 33.9477H41.5411V17.3162L29.4346 32.3947C28.562 33.4693 27.4558 34.01 26.1297 34.01C24.7692 34.01 23.6493 33.4693 22.7766 32.3877L10.4363 17.2119V33.9269L4.76074 33.9477V10.8339C4.76074 9.93946 5.04245 9.23931 5.61273 8.71935C6.18312 8.20648 6.91813 7.94976 7.8183 7.94976C9.11695 7.94976 10.1546 8.41424 10.9171 9.33629L26.1573 27.5279L41.0403 9.31563C41.8021 8.40735 42.8123 7.94976 44.056 7.94976C44.9837 7.94976 45.7393 8.23403 46.331 8.80946C46.9217 9.38489 47.2165 10.1336 47.2165 11.0557V33.9477Z" fill="#0082C9"/>
<path d="M80.1084 26.5562C80.1084 31.3885 76.1163 33.808 68.1322 33.808H61.1645C58.0389 33.808 55.4617 33.3713 53.435 32.491C50.6317 31.2707 49.2295 29.2949 49.2295 26.5773V15.1588C49.2295 10.2853 53.2078 7.84487 61.1645 7.84487H68.1322C71.6635 7.84487 74.302 8.21235 76.0614 8.94025C78.7612 10.0496 80.1084 12.1223 80.1084 15.1588V26.5562ZM74.4119 26.4524V15.256C74.4119 13.5783 72.3504 12.7395 68.2347 12.7395H61.1444C56.9875 12.7395 54.9048 13.5783 54.9048 15.256V26.4524C54.9048 28.0677 56.9875 28.8718 61.1444 28.8718H68.2484C72.3578 28.8718 74.4119 28.0677 74.4119 26.4524Z" fill="#0082C9"/>
<path d="M114.093 33.9676H103.758L88.0997 25.1906V33.9676H82.4233V7.84487H102.597C105.573 7.84487 108.025 8.26764 109.942 9.10649C112.602 10.2574 113.928 12.1224 113.928 14.7083V17.6965C113.928 20.1367 112.704 21.9184 110.258 23.0555C108.424 23.9081 106.142 24.3378 103.394 24.3378H96.7771L114.093 33.9676ZM108.252 17.7379V14.6111C108.252 13.3633 106.597 12.7395 103.278 12.7395H88.0997V19.4434H104.288C106.933 19.4434 108.252 18.8749 108.252 17.7379Z" fill="#0082C9"/>
<path d="M121.748 33.9481H116.072V7.70765H121.748V33.9481Z" fill="#0082C9"/>
<path d="M150.185 33.8088H127.339C126.452 33.8088 125.663 33.5525 124.962 33.0393C124.2 32.4707 123.814 31.7499 123.814 30.8833C123.814 30.1761 124.282 29.4204 125.223 28.6094L142.593 13.7593H142.61L143.792 12.7403H126.147V7.88725H148.993C149.88 7.88725 150.67 8.14378 151.371 8.65683C152.134 9.22538 152.518 9.9462 152.518 10.813C152.518 11.52 152.051 12.2758 151.11 13.0868L133.739 27.9368H133.722L132.541 28.956H150.185V33.8088Z" fill="#0082C9"/>
<path fill-rule="evenodd" clip-rule="evenodd" d="M156.445 0.106652C157.162 0.106652 157.862 0.291754 158.546 0.66232C159.227 1.03452 159.761 1.5648 160.141 2.25681C160.522 2.947 160.714 3.66819 160.714 4.41874C160.714 5.16151 160.526 5.8749 160.15 6.55928C159.775 7.24549 159.247 7.77759 158.571 8.15577C157.893 8.53595 157.186 8.72503 156.445 8.72503C155.705 8.72503 154.996 8.53595 154.32 8.15577C153.642 7.77759 153.114 7.24549 152.738 6.55928C152.359 5.8749 152.172 5.16151 152.172 4.41874C152.172 3.66819 152.363 2.947 152.746 2.25681C153.128 1.5648 153.662 1.03452 154.345 0.66232C155.027 0.291754 155.729 0.106652 156.445 0.106652ZM156.445 0.820227C155.845 0.820227 155.262 0.976142 154.693 1.28597C154.126 1.59599 153.681 2.04052 153.36 2.61558C153.039 3.19265 152.879 3.79292 152.879 4.41874C152.879 5.03878 153.037 5.63323 153.352 6.20251C153.667 6.77177 154.108 7.21612 154.674 7.53393C155.24 7.85174 155.829 8.01146 156.445 8.01146C157.06 8.01146 157.651 7.85174 158.217 7.53393C158.783 7.21612 159.222 6.77177 159.535 6.20251C159.847 5.63323 160.004 5.03878 160.004 4.41874C160.004 3.79292 159.846 3.19265 159.527 2.61558C159.208 2.04052 158.764 1.59599 158.194 1.28597C157.624 0.976142 157.041 0.820227 156.445 0.820227ZM154.572 6.79896V2.16326H156.15C156.691 2.16326 157.081 2.20423 157.323 2.28998C157.564 2.37573 157.755 2.52585 157.9 2.73832C158.044 2.9528 158.115 3.17887 158.115 3.41872C158.115 3.75793 157.995 4.05235 157.755 4.3038C157.515 4.55526 157.197 4.69558 156.801 4.72677C156.964 4.79494 157.095 4.87688 157.191 4.97242C157.377 5.15571 157.603 5.46173 157.872 5.89249L158.432 6.79896H157.526L157.118 6.06798C156.797 5.49491 156.54 5.13413 156.344 4.99C156.208 4.88268 156.009 4.8301 155.748 4.8301H155.313V6.79896H154.572ZM155.313 4.19068H156.214C156.643 4.19068 156.936 4.12432 157.093 3.99579C157.249 3.86707 157.328 3.69556 157.328 3.48109C157.328 3.34457 157.289 3.22183 157.214 3.1127C157.139 3.00537 157.035 2.92361 156.902 2.87085C156.766 2.81628 156.519 2.79108 156.155 2.79108H155.313V4.19068Z" fill="#0082C9"/>
</g>
<path d="M6.646 42.27V52H5.05V42.27H6.646ZM16.7354 52H15.1394L10.3374 44.734V52H8.74141V42.256H10.3374L15.1394 49.508V42.256H16.7354V52ZM22.0093 42.27C23.0453 42.27 23.9506 42.4707 24.7253 42.872C25.5093 43.264 26.1113 43.8333 26.5312 44.58C26.9606 45.3173 27.1753 46.1807 27.1753 47.17C27.1753 48.1593 26.9606 49.018 26.5312 49.746C26.1113 50.474 25.5093 51.034 24.7253 51.426C23.9506 51.8087 23.0453 52 22.0093 52H18.8313V42.27H22.0093ZM22.0093 50.698C23.1479 50.698 24.0206 50.39 24.6273 49.774C25.2339 49.158 25.5373 48.29 25.5373 47.17C25.5373 46.0407 25.2339 45.1587 24.6273 44.524C24.0206 43.8893 23.1479 43.572 22.0093 43.572H20.4273V50.698H22.0093ZM30.353 42.27V52H28.757V42.27H30.353ZM38.3144 50.012H34.2404L33.5404 52H31.8744L35.3604 42.256H37.2084L40.6944 52H39.0144L38.3144 50.012ZM37.8664 48.71L36.2844 44.188L34.6884 48.71H37.8664Z" fill="#383838"/>
<path d="M74.632 42.27V48.472C74.632 49.2093 74.8233 49.7647 75.206 50.138C75.598 50.5113 76.1393 50.698 76.83 50.698C77.53 50.698 78.0713 50.5113 78.454 50.138C78.846 49.7647 79.042 49.2093 79.042 48.472V42.27H80.638V48.444C80.638 49.2373 80.4653 49.9093 80.12 50.46C79.7747 51.0107 79.3127 51.4213 78.734 51.692C78.1553 51.9627 77.516 52.098 76.816 52.098C76.116 52.098 75.4767 51.9627 74.898 51.692C74.3287 51.4213 73.876 51.0107 73.54 50.46C73.204 49.9093 73.036 49.2373 73.036 48.444V42.27H74.632ZM88.582 50.012H84.508L83.808 52H82.142L85.628 42.256H87.476L90.962 52H89.282L88.582 50.012ZM88.134 48.71L86.552 44.188L84.956 48.71H88.134ZM94.0737 43.558V46.414H97.4337V47.716H94.0737V50.698H97.8537V52H92.4777V42.256H97.8537V43.558H94.0737Z" fill="#383838"/>
<path d="M131.632 42.27V48.472C131.632 49.2093 131.823 49.7647 132.206 50.138C132.598 50.5113 133.139 50.698 133.83 50.698C134.53 50.698 135.071 50.5113 135.454 50.138C135.846 49.7647 136.042 49.2093 136.042 48.472V42.27H137.638V48.444C137.638 49.2373 137.465 49.9093 137.12 50.46C136.775 51.0107 136.313 51.4213 135.734 51.692C135.155 51.9627 134.516 52.098 133.816 52.098C133.116 52.098 132.477 51.9627 131.898 51.692C131.329 51.4213 130.876 51.0107 130.54 50.46C130.204 49.9093 130.036 49.2373 130.036 48.444V42.27H131.632ZM145.078 52L141.312 47.646V52H139.716V42.27H141.312V46.708L145.092 42.27H147.094L142.866 47.142L147.164 52H145.078Z" fill="#383838"/>
<rect x="56" y="40" width="1" height="13" fill="#383838"/>
<rect x="114" y="40" width="1" height="13" fill="#383838"/>
<defs>
<clipPath id="clip0_120_362">
<rect width="164" height="34" fill="white"/>
</clipPath>
</defs>
</svg>
