<svg width="24" height="24" viewBox="0 0 24 24" fill="none" xmlns="http://www.w3.org/2000/svg">
<g clip-path="url(#clip0_408_3210)">
<path d="M22.1018 20.2128C22.1499 20.2133 22.1975 20.204 22.2417 20.1855C22.286 20.167 22.3259 20.1397 22.3591 20.1053C22.3922 20.0708 22.4179 20.03 22.4344 19.9854C22.451 19.9407 22.4581 19.8932 22.4553 19.8457C22.4553 19.5853 22.2967 19.4609 21.9712 19.4609H21.4453V20.8241H21.6431V20.2299H21.8862L21.8917 20.2371L22.2689 20.8241H22.4805L22.0746 20.2166L22.1018 20.2128ZM21.8731 20.0763H21.6437V19.6154H21.9344C22.0846 19.6154 22.2558 19.6397 22.2558 19.8344C22.2558 20.0583 22.0825 20.0763 21.8719 20.0763" fill="#172747"/>
<path d="M16.9406 18.5057H14.1357V14.1564C14.1357 13.1193 14.117 11.7841 12.6769 11.7841C11.216 11.7841 10.9925 12.9141 10.9925 14.0809V18.5054H8.18759V9.56146H10.8803V10.7837H10.918C11.1875 10.3275 11.5769 9.95224 12.0447 9.69782C12.5126 9.4434 13.0413 9.31939 13.5747 9.33899C16.4176 9.33899 16.9418 11.1905 16.9418 13.5992L16.9406 18.5057ZM5.02275 8.33889C4.70081 8.33895 4.38609 8.24448 4.11838 8.06743C3.85067 7.89039 3.64201 7.63871 3.51876 7.34424C3.39551 7.04976 3.36321 6.72572 3.42596 6.41307C3.48871 6.10042 3.64369 5.81322 3.87129 5.58778C4.09888 5.36235 4.38889 5.2088 4.70462 5.14655C5.02036 5.08431 5.34763 5.11617 5.64508 5.2381C5.94253 5.36003 6.19678 5.56656 6.37568 5.83157C6.55459 6.09657 6.65011 6.40816 6.65017 6.72692C6.65021 6.93857 6.60814 7.14815 6.52637 7.3437C6.44461 7.53926 6.32475 7.71695 6.17363 7.86663C6.02251 8.01632 5.84309 8.13507 5.64562 8.2161C5.44815 8.29713 5.2365 8.33885 5.02275 8.33889ZM6.42519 18.5057H3.61738V9.56146H6.42519V18.5057ZM18.339 2.53643H2.20793C1.8418 2.53234 1.48899 2.67234 1.22706 2.92567C0.96513 3.179 0.815504 3.52494 0.811035 3.88746V19.9259C0.815351 20.2886 0.964889 20.6347 1.22681 20.8883C1.48873 21.1419 1.84162 21.2822 2.20793 21.2783H18.339C18.706 21.2829 19.0599 21.143 19.3228 20.8894C19.5858 20.6358 19.7363 20.2893 19.7414 19.9259V3.8863C19.7362 3.52306 19.5855 3.17674 19.3226 2.92341C19.0596 2.67009 18.7058 2.53048 18.339 2.53528" fill="#172747"/>
<path d="M21.8971 18.8545C21.5558 18.8577 21.2297 18.9947 20.9902 19.2353C20.7506 19.476 20.617 19.8008 20.6187 20.1387C20.6203 20.4766 20.757 20.8001 20.9989 21.0385C21.2408 21.2769 21.5682 21.4107 21.9095 21.4107C22.2508 21.4107 22.5781 21.2769 22.82 21.0385C23.0619 20.8001 23.1987 20.4766 23.2003 20.1387C23.202 19.8008 23.0684 19.476 22.8288 19.2353C22.5892 18.9947 22.2632 18.8577 21.9219 18.8545H21.8971ZM21.8971 21.2643C21.6732 21.268 21.4533 21.2059 21.2651 21.0859C21.077 20.9658 20.929 20.7932 20.8399 20.5898C20.7508 20.3865 20.7246 20.1615 20.7646 19.9434C20.8046 19.7253 20.909 19.5239 21.0647 19.3646C21.2203 19.2053 21.4202 19.0952 21.639 19.0483C21.8578 19.0015 22.0857 19.0199 22.2939 19.1013C22.5022 19.1827 22.6813 19.3235 22.8088 19.5057C22.9362 19.6879 23.0062 19.9035 23.01 20.1251C23.01 20.1315 23.01 20.1375 23.01 20.1439C23.0162 20.4346 22.9056 20.7159 22.7025 20.9259C22.4993 21.136 22.2202 21.2575 21.9266 21.2638H21.8974" fill="#172747"/>
</g>
<defs>
<clipPath id="clip0_408_3210">
<rect width="22.3877" height="18.8987" fill="white" transform="translate(0.8125 2.53516)"/>
</clipPath>
</defs>
</svg>
