<svg width="15" height="19" viewBox="0 0 15 19" fill="none" xmlns="http://www.w3.org/2000/svg">
<path fill-rule="evenodd" clip-rule="evenodd" d="M3.28711 7.65625C3.28711 6.55394 3.725 5.49679 4.50445 4.71734C5.28389 3.93789 6.34105 3.5 7.44336 3.5C8.54566 3.5 9.60282 3.93789 10.3823 4.71734C11.1617 5.49679 11.5996 6.55394 11.5996 7.65625C11.5996 8.75856 11.1617 9.81571 10.3823 10.5952C9.60282 11.3746 8.54566 11.8125 7.44336 11.8125C6.34105 11.8125 5.28389 11.3746 4.50445 10.5952C3.725 9.81571 3.28711 8.75856 3.28711 7.65625ZM7.44336 4.8125C6.68915 4.8125 5.96583 5.11211 5.43252 5.64541C4.89922 6.17872 4.59961 6.90204 4.59961 7.65625C4.59961 8.41046 4.89922 9.13378 5.43252 9.66708C5.96583 10.2004 6.68915 10.5 7.44336 10.5C8.19757 10.5 8.92089 10.2004 9.45419 9.66708C9.9875 9.13378 10.2871 8.41046 10.2871 7.65625C10.2871 6.90204 9.9875 6.17872 9.45419 5.64541C8.92089 5.11211 8.19757 4.8125 7.44336 4.8125Z" fill="#4A4A4A"/>
<path fill-rule="evenodd" clip-rule="evenodd" d="M0.0265346 6.65613C0.176489 4.84223 1.00287 3.15099 2.3417 1.918C3.68052 0.685016 5.43395 0.000398808 7.25404 0H7.63203C9.45212 0.000398808 11.2055 0.685016 12.5444 1.918C13.8832 3.15099 14.7096 4.84223 14.8595 6.65613C15.0263 8.67679 14.4021 10.6833 13.1183 12.2526L8.92441 17.381C8.74493 17.6005 8.51892 17.7773 8.26273 17.8988C8.00654 18.0202 7.72656 18.0832 7.44304 18.0832C7.15951 18.0832 6.87953 18.0202 6.62334 17.8988C6.36715 17.7773 6.14114 17.6005 5.96166 17.381L1.76778 12.2526C0.484015 10.6833 -0.140269 8.67679 0.0265346 6.65613ZM7.25404 1.3125C5.76357 1.31313 4.32779 1.87394 3.23149 2.88369C2.13519 3.89344 1.45846 5.27837 1.33553 6.76375C1.19666 8.44541 1.71616 10.1153 2.78453 11.4214L6.97841 16.5506C7.03479 16.6196 7.1058 16.6752 7.18631 16.7134C7.26682 16.7516 7.35481 16.7714 7.44391 16.7714C7.53301 16.7714 7.621 16.7516 7.70151 16.7134C7.78202 16.6752 7.85303 16.6196 7.90941 16.5506L12.1033 11.4214C13.171 10.115 13.6899 8.44517 13.5505 6.76375C13.4276 5.27822 12.7507 3.89317 11.6543 2.8834C10.5578 1.87362 9.12177 1.31291 7.63116 1.3125H7.25404Z" fill="#4A4A4A"/>
</svg>
