<svg width="164" height="55" viewBox="0 0 164 55" fill="none" xmlns="http://www.w3.org/2000/svg">
<g clip-path="url(#clip0_452_1038)">
<path d="M47.2155 33.9477H41.5401V17.3162L29.4336 32.3947C28.561 33.4693 27.4548 34.01 26.1287 34.01C24.7682 34.01 23.6483 33.4693 22.7756 32.3877L10.4353 17.2119V33.9269L4.75977 33.9477V10.8339C4.75977 9.93947 5.04147 9.23932 5.61175 8.71936C6.18214 8.20649 6.91716 7.94977 7.81733 7.94977C9.11597 7.94977 10.1536 8.41425 10.9161 9.3363L26.1563 27.5279L41.0393 9.31564C41.8012 8.40736 42.8113 7.94977 44.055 7.94977C44.9828 7.94977 45.7383 8.23404 46.33 8.80947C46.9207 9.3849 47.2155 10.1336 47.2155 11.0557V33.9477Z" fill="#0082C9"/>
<path d="M80.1074 26.5562C80.1074 31.3884 76.1154 33.808 68.1312 33.808H61.1636C58.0379 33.808 55.4607 33.3713 53.434 32.491C50.6307 31.2706 49.2285 29.2948 49.2285 26.5773V15.1588C49.2285 10.2852 53.2069 7.84485 61.1636 7.84485H68.1312C71.6626 7.84485 74.3011 8.21233 76.0604 8.94023C78.7602 10.0496 80.1074 12.1223 80.1074 15.1588V26.5562ZM74.411 26.4524V15.256C74.411 13.5783 72.3494 12.7395 68.2337 12.7395H61.1435C56.9865 12.7395 54.9039 13.5783 54.9039 15.256V26.4524C54.9039 28.0677 56.9865 28.8718 61.1435 28.8718H68.2474C72.3568 28.8718 74.411 28.0677 74.411 26.4524Z" fill="#0082C9"/>
<path d="M114.093 33.9676H103.759L88.1002 25.1906V33.9676H82.4238V7.84485H102.598C105.573 7.84485 108.026 8.26762 109.943 9.10647C112.602 10.2573 113.928 12.1224 113.928 14.7083V17.6964C113.928 20.1367 112.705 21.9184 110.258 23.0555C108.424 23.9081 106.143 24.3377 103.394 24.3377H96.7776L114.093 33.9676ZM108.253 17.7379V14.6111C108.253 13.3633 106.597 12.7395 103.278 12.7395H88.1002V19.4433H104.288C106.933 19.4433 108.253 18.8749 108.253 17.7379Z" fill="#0082C9"/>
<path d="M121.749 33.9481H116.072V7.70764H121.749V33.9481Z" fill="#0082C9"/>
<path d="M150.186 33.8088H127.339C126.453 33.8088 125.664 33.5525 124.962 33.0393C124.2 32.4707 123.814 31.7499 123.814 30.8833C123.814 30.1761 124.283 29.4204 125.223 28.6094L142.594 13.7594H142.61L143.793 12.7403H126.148V7.88727H148.994C149.88 7.88727 150.671 8.1438 151.371 8.65685C152.134 9.2254 152.519 9.94622 152.519 10.813C152.519 11.52 152.052 12.2758 151.11 13.0868L133.74 27.9368H133.723L132.541 28.956H150.186V33.8088Z" fill="#0082C9"/>
<path fill-rule="evenodd" clip-rule="evenodd" d="M156.445 0.106659C157.162 0.106659 157.862 0.291761 158.546 0.662327C159.227 1.03453 159.761 1.56481 160.141 2.25682C160.522 2.94701 160.714 3.6682 160.714 4.41875C160.714 5.16152 160.526 5.8749 160.15 6.55929C159.775 7.2455 159.247 7.7776 158.571 8.15577C157.893 8.53596 157.186 8.72504 156.445 8.72504C155.705 8.72504 154.996 8.53596 154.32 8.15577C153.642 7.7776 153.114 7.2455 152.738 6.55929C152.359 5.8749 152.172 5.16152 152.172 4.41875C152.172 3.6682 152.363 2.94701 152.746 2.25682C153.128 1.56481 153.662 1.03453 154.345 0.662327C155.027 0.291761 155.729 0.106659 156.445 0.106659ZM156.445 0.820234C155.845 0.820234 155.262 0.976149 154.693 1.28598C154.126 1.59599 153.681 2.04053 153.36 2.61559C153.039 3.19266 152.879 3.79293 152.879 4.41875C152.879 5.03878 153.037 5.63324 153.352 6.20251C153.667 6.77178 154.108 7.21613 154.674 7.53394C155.24 7.85175 155.829 8.01147 156.445 8.01147C157.06 8.01147 157.651 7.85175 158.217 7.53394C158.783 7.21613 159.222 6.77178 159.535 6.20251C159.847 5.63324 160.004 5.03878 160.004 4.41875C160.004 3.79293 159.846 3.19266 159.527 2.61559C159.208 2.04053 158.764 1.59599 158.194 1.28598C157.624 0.976149 157.041 0.820234 156.445 0.820234ZM154.572 6.79896V2.16326H156.15C156.691 2.16326 157.081 2.20424 157.323 2.28999C157.564 2.37574 157.755 2.52585 157.9 2.73833C158.044 2.95281 158.115 3.17887 158.115 3.41873C158.115 3.75793 157.995 4.05235 157.755 4.30381C157.515 4.55527 157.197 4.69559 156.801 4.72677C156.964 4.79494 157.095 4.87689 157.191 4.97242C157.377 5.15572 157.603 5.46174 157.872 5.8925L158.432 6.79896H157.526L157.118 6.06799C156.797 5.49492 156.54 5.13414 156.344 4.99001C156.208 4.88269 156.009 4.8301 155.748 4.8301H155.313V6.79896H154.572ZM155.313 4.19069H156.214C156.643 4.19069 156.936 4.12433 157.093 3.99579C157.249 3.86708 157.328 3.69556 157.328 3.4811C157.328 3.34458 157.289 3.22184 157.214 3.11271C157.139 3.00538 157.035 2.92361 156.902 2.87086C156.766 2.81628 156.519 2.79109 156.155 2.79109H155.313V4.19069Z" fill="#0082C9"/>
</g>
<path d="M6.94 42.0975V46.175H11.385V47.4875H6.94V51.6875H11.91V53H5.3475V40.785H11.91V42.0975H6.94ZM23.9097 53H22.3172L15.9122 43.2875V53H14.3197V40.785H15.9122L22.3172 50.48V40.785H23.9097V53ZM30.4219 40.8025C31.7519 40.8025 32.901 41.0533 33.8694 41.555C34.8494 42.045 35.596 42.7508 36.1094 43.6725C36.6344 44.5942 36.8969 45.6792 36.8969 46.9275C36.8969 48.1758 36.6344 49.2608 36.1094 50.1825C35.596 51.0925 34.8494 51.7925 33.8694 52.2825C32.901 52.7608 31.7519 53 30.4219 53H26.6244V40.8025H30.4219ZM30.4219 51.6875C31.9969 51.6875 33.1985 51.2733 34.0269 50.445C34.8552 49.605 35.2694 48.4325 35.2694 46.9275C35.2694 45.4108 34.8494 44.2267 34.0094 43.375C33.181 42.5233 31.9852 42.0975 30.4219 42.0975H28.2169V51.6875H30.4219ZM40.5549 40.8025V48.52C40.5549 49.605 40.8174 50.41 41.3424 50.935C41.8791 51.46 42.6199 51.7225 43.5649 51.7225C44.4982 51.7225 45.2274 51.46 45.7524 50.935C46.2891 50.41 46.5574 49.605 46.5574 48.52V40.8025H48.1499V48.5025C48.1499 49.5175 47.9457 50.375 47.5374 51.075C47.1291 51.7633 46.5749 52.2767 45.8749 52.615C45.1866 52.9533 44.4107 53.1225 43.5474 53.1225C42.6841 53.1225 41.9024 52.9533 41.2024 52.615C40.5141 52.2767 39.9657 51.7633 39.5574 51.075C39.1607 50.375 38.9624 49.5175 38.9624 48.5025V40.8025H40.5549ZM57.229 53L54.324 48.0125H52.399V53H50.8065V40.8025H54.744C55.6657 40.8025 56.4415 40.96 57.0715 41.275C57.7132 41.59 58.1915 42.0158 58.5065 42.5525C58.8215 43.0892 58.979 43.7017 58.979 44.39C58.979 45.23 58.734 45.9708 58.244 46.6125C57.7657 47.2542 57.0423 47.68 56.074 47.89L59.1365 53H57.229ZM52.399 46.735H54.744C55.6073 46.735 56.2548 46.525 56.6865 46.105C57.1182 45.6733 57.334 45.1017 57.334 44.39C57.334 43.6667 57.1182 43.1067 56.6865 42.71C56.2665 42.3133 55.619 42.115 54.744 42.115H52.399V46.735ZM63.046 40.8025V53H61.4535V40.8025H63.046ZM75.3501 53H73.7576L67.3526 43.2875V53H65.7601V40.785H67.3526L73.7576 50.48V40.785H75.3501V53ZM87.3048 44.3375C86.9665 43.6258 86.4765 43.0775 85.8348 42.6925C85.1931 42.2958 84.4465 42.0975 83.5948 42.0975C82.7431 42.0975 81.9731 42.2958 81.2848 42.6925C80.6081 43.0775 80.0715 43.6375 79.6748 44.3725C79.2898 45.0958 79.0973 45.9358 79.0973 46.8925C79.0973 47.8492 79.2898 48.6892 79.6748 49.4125C80.0715 50.1358 80.6081 50.6958 81.2848 51.0925C81.9731 51.4775 82.7431 51.67 83.5948 51.67C84.7848 51.67 85.7648 51.3142 86.5348 50.6025C87.3048 49.8908 87.754 48.9283 87.8823 47.715H83.0173V46.42H89.5798V47.645C89.4865 48.6483 89.1715 49.57 88.6348 50.41C88.0981 51.2383 87.3923 51.8975 86.5173 52.3875C85.6423 52.8658 84.6681 53.105 83.5948 53.105C82.4631 53.105 81.4306 52.8425 80.4973 52.3175C79.564 51.7808 78.8231 51.04 78.2748 50.095C77.7381 49.15 77.4698 48.0825 77.4698 46.8925C77.4698 45.7025 77.7381 44.635 78.2748 43.69C78.8231 42.7333 79.564 41.9925 80.4973 41.4675C81.4306 40.9308 82.4631 40.6625 83.5948 40.6625C84.8898 40.6625 86.0331 40.9833 87.0248 41.625C88.0281 42.2667 88.7573 43.1708 89.2123 44.3375H87.3048ZM100.218 53.1225C99.4134 53.1225 98.6901 52.9825 98.0484 52.7025C97.4184 52.4108 96.9226 52.0142 96.5609 51.5125C96.1993 50.9992 96.0126 50.41 96.0009 49.745H97.6984C97.7568 50.3167 97.9901 50.8008 98.3984 51.1975C98.8184 51.5825 99.4251 51.775 100.218 51.775C100.977 51.775 101.572 51.5883 102.003 51.215C102.447 50.83 102.668 50.34 102.668 49.745C102.668 49.2783 102.54 48.8992 102.283 48.6075C102.027 48.3158 101.706 48.0942 101.321 47.9425C100.936 47.7908 100.417 47.6275 99.7634 47.4525C98.9584 47.2425 98.3109 47.0325 97.8209 46.8225C97.3426 46.6125 96.9284 46.2858 96.5784 45.8425C96.2401 45.3875 96.0709 44.7808 96.0709 44.0225C96.0709 43.3575 96.2401 42.7683 96.5784 42.255C96.9168 41.7417 97.3893 41.345 97.9959 41.065C98.6143 40.785 99.3201 40.645 100.113 40.645C101.257 40.645 102.19 40.9308 102.913 41.5025C103.648 42.0742 104.063 42.8325 104.156 43.7775H102.406C102.348 43.3108 102.103 42.9025 101.671 42.5525C101.239 42.1908 100.668 42.01 99.9559 42.01C99.2909 42.01 98.7484 42.185 98.3284 42.535C97.9084 42.8733 97.6984 43.3517 97.6984 43.97C97.6984 44.4133 97.8209 44.775 98.0659 45.055C98.3226 45.335 98.6318 45.5508 98.9934 45.7025C99.3668 45.8425 99.8859 46.0058 100.551 46.1925C101.356 46.4142 102.003 46.6358 102.493 46.8575C102.983 47.0675 103.403 47.4 103.753 47.855C104.103 48.2983 104.278 48.905 104.278 49.675C104.278 50.27 104.121 50.83 103.806 51.355C103.491 51.88 103.024 52.3058 102.406 52.6325C101.788 52.9592 101.058 53.1225 100.218 53.1225ZM118.994 40.89V53H117.402V43.97L113.377 53H112.257L108.214 43.9525V53H106.622V40.89H108.337L112.817 50.9L117.297 40.89H118.994ZM123.288 40.8025V53H121.695V40.8025H123.288ZM127.594 51.705H131.864V53H126.002V40.8025H127.594V51.705ZM135.148 42.0975V46.175H139.593V47.4875H135.148V51.6875H140.118V53H133.556V40.785H140.118V42.0975H135.148ZM146.395 53.1225C145.59 53.1225 144.867 52.9825 144.225 52.7025C143.595 52.4108 143.099 52.0142 142.738 51.5125C142.376 50.9992 142.189 50.41 142.178 49.745H143.875C143.934 50.3167 144.167 50.8008 144.575 51.1975C144.995 51.5825 145.602 51.775 146.395 51.775C147.154 51.775 147.749 51.5883 148.18 51.215C148.624 50.83 148.845 50.34 148.845 49.745C148.845 49.2783 148.717 48.8992 148.46 48.6075C148.204 48.3158 147.883 48.0942 147.498 47.9425C147.113 47.7908 146.594 47.6275 145.94 47.4525C145.135 47.2425 144.488 47.0325 143.998 46.8225C143.519 46.6125 143.105 46.2858 142.755 45.8425C142.417 45.3875 142.248 44.7808 142.248 44.0225C142.248 43.3575 142.417 42.7683 142.755 42.255C143.094 41.7417 143.566 41.345 144.173 41.065C144.791 40.785 145.497 40.645 146.29 40.645C147.434 40.645 148.367 40.9308 149.09 41.5025C149.825 42.0742 150.239 42.8325 150.333 43.7775H148.583C148.524 43.3108 148.279 42.9025 147.848 42.5525C147.416 42.1908 146.844 42.01 146.133 42.01C145.468 42.01 144.925 42.185 144.505 42.535C144.085 42.8733 143.875 43.3517 143.875 43.97C143.875 44.4133 143.998 44.775 144.243 45.055C144.499 45.335 144.809 45.5508 145.17 45.7025C145.544 45.8425 146.063 46.0058 146.728 46.1925C147.533 46.4142 148.18 46.6358 148.67 46.8575C149.16 47.0675 149.58 47.4 149.93 47.855C150.28 48.2983 150.455 48.905 150.455 49.675C150.455 50.27 150.298 50.83 149.983 51.355C149.668 51.88 149.201 52.3058 148.583 52.6325C147.964 52.9592 147.235 53.1225 146.395 53.1225Z" fill="#0082C9"/>
<defs>
<clipPath id="clip0_452_1038">
<rect width="164" height="34" fill="white"/>
</clipPath>
</defs>
</svg>
