<svg width="571" height="120" viewBox="0 0 571 120" fill="none" xmlns="http://www.w3.org/2000/svg">
<g clip-path="url(#clip0_267_1508)">
<g clip-path="url(#clip1_267_1508)">
<path d="M157.276 120.265H137.17V61.3455L94.281 114.763C91.1897 118.57 87.2708 120.486 82.5728 120.486C77.7532 120.486 73.7856 118.57 70.6939 114.739L26.9766 60.9761V120.191L6.87012 120.265V38.3812C6.87012 35.2124 7.8681 32.732 9.88841 30.89C11.9091 29.073 14.513 28.1636 17.702 28.1636C22.3026 28.1636 25.9787 29.8091 28.6799 33.0756L82.6705 97.5222L135.396 33.0024C138.095 29.7847 141.674 28.1636 146.079 28.1636C149.366 28.1636 152.043 29.1706 154.139 31.2092C156.232 33.2477 157.276 35.9003 157.276 39.1668V120.265Z" fill="#FEFEFE"/>
<path d="M273.8 94.0798C273.8 111.199 259.658 119.77 231.373 119.77H206.689C195.616 119.77 186.486 118.223 179.306 115.105C169.375 110.781 164.407 103.782 164.407 94.1546V53.7027C164.407 36.4375 178.501 27.792 206.689 27.792H231.373C243.883 27.792 253.231 29.0939 259.463 31.6725C269.028 35.6025 273.8 42.9454 273.8 53.7027V94.0798ZM253.62 93.7119V54.0471C253.62 48.1036 246.316 45.1319 231.736 45.1319H206.618C191.891 45.1319 184.513 48.1036 184.513 54.0471V93.7119C184.513 99.4345 191.891 102.283 206.618 102.283H231.785C246.343 102.283 253.62 99.4345 253.62 93.7119Z" fill="#FEFEFE"/>
<path d="M394.196 120.336H357.586L302.112 89.2418V120.336H282.003V27.792H353.472C364.013 27.792 372.702 29.2897 379.492 32.2615C388.914 36.3386 393.612 42.9457 393.612 52.1069V62.6928C393.612 71.3376 389.277 77.6497 380.611 81.6779C374.113 84.6984 366.031 86.2206 356.294 86.2206H332.853L394.196 120.336ZM373.507 62.8397V51.7624C373.507 47.3418 367.641 45.1319 355.883 45.1319H302.112V68.8814H359.461C368.831 68.8814 373.507 66.8675 373.507 62.8397Z" fill="#FEFEFE"/>
<path d="M421.317 120.266H401.207V27.3052H421.317V120.266Z" fill="#FEFEFE"/>
<path d="M522.059 119.773H441.123C437.982 119.773 435.186 118.865 432.7 117.047C430.001 115.032 428.635 112.479 428.635 109.409C428.635 106.904 430.293 104.226 433.625 101.353L495.162 48.7447H495.222L499.411 45.1346H436.9V27.9419H517.836C520.977 27.9419 523.777 28.8507 526.259 30.6683C528.962 32.6824 530.324 35.236 530.324 38.3069C530.324 40.8114 528.67 43.4889 525.334 46.3621L463.796 98.9703H463.737L459.551 102.581H522.059V119.773Z" fill="#FEFEFE"/>
<path fill-rule="evenodd" clip-rule="evenodd" d="M544.235 0.37793C546.777 0.37793 549.255 1.03368 551.677 2.34647C554.091 3.66504 555.982 5.54365 557.329 7.9952C558.677 10.4403 559.358 12.9952 559.358 15.6542C559.358 18.2855 558.692 20.8128 557.359 23.2374C556.03 25.6684 554.162 27.5534 551.767 28.8931C549.363 30.24 546.859 30.9099 544.235 30.9099C541.615 30.9099 539.103 30.24 536.707 28.8931C534.304 27.5534 532.436 25.6684 531.103 23.2374C529.759 20.8128 529.097 18.2855 529.097 15.6542C529.097 12.9952 529.774 10.4403 531.129 7.9952C532.484 5.54365 534.375 3.66504 536.797 2.34647C539.211 1.03368 541.697 0.37793 544.235 0.37793ZM544.235 2.90588C542.109 2.90588 540.042 3.45823 538.028 4.55584C536.018 5.65412 534.442 7.22895 533.304 9.2662C532.17 11.3106 531.601 13.4371 531.601 15.6542C531.601 17.8507 532.162 19.9567 533.278 21.9734C534.394 23.9901 535.955 25.5643 537.961 26.6902C539.967 27.8161 542.053 28.3819 544.235 28.3819C546.414 28.3819 548.506 27.8161 550.513 26.6902C552.519 25.5643 554.073 23.9901 555.181 21.9734C556.289 19.9567 556.843 17.8507 556.843 15.6542C556.843 13.4371 556.285 11.3106 555.154 9.2662C554.024 7.22895 552.452 5.65412 550.43 4.55584C548.413 3.45823 546.346 2.90588 544.235 2.90588ZM537.598 24.0864V7.66376H543.191C545.107 7.66376 546.488 7.80892 547.346 8.1127C548.199 8.41649 548.877 8.94829 549.39 9.70101C549.899 10.4608 550.15 11.2617 550.15 12.1114C550.15 13.3131 549.726 14.3562 548.877 15.247C548.027 16.1378 546.9 16.6349 545.497 16.7454C546.073 16.9869 546.537 17.2772 546.878 17.6156C547.537 18.265 548.338 19.3491 549.289 20.8751L551.273 24.0864H548.064L546.62 21.4968C545.482 19.4666 544.572 18.1885 543.876 17.6779C543.396 17.2977 542.689 17.1115 541.764 17.1115H540.226V24.0864H537.598ZM540.226 14.8462H543.415C544.935 14.8462 545.976 14.6111 546.53 14.1558C547.084 13.6998 547.364 13.0922 547.364 12.3324C547.364 11.8487 547.226 11.4139 546.96 11.0273C546.694 10.6471 546.324 10.3574 545.852 10.1705C545.373 9.97719 544.497 9.88794 543.209 9.88794H540.226V14.8462Z" fill="#FEFEFE"/>
</g>
</g>
<defs>
<clipPath id="clip0_267_1508">
<rect width="571" height="120" fill="white"/>
</clipPath>
<clipPath id="clip1_267_1508">
<rect width="571" height="120.45" fill="white"/>
</clipPath>
</defs>
</svg>
