<svg width="32" height="32" viewBox="0 0 32 32" fill="none" xmlns="http://www.w3.org/2000/svg">
<circle cx="16" cy="16" r="16" fill="white"/>
<path d="M20.2164 12.2289L20.2164 18.5143C20.2164 18.6323 20.1696 18.7455 20.0861 18.8289C20.0026 18.9124 19.8895 18.9593 19.7714 18.9593C19.6534 18.9593 19.5402 18.9124 19.4568 18.8289C19.3733 18.7455 19.3264 18.6323 19.3264 18.5143L19.3271 13.3018L12.5432 20.0856C12.4599 20.169 12.3468 20.2158 12.229 20.2158C12.1111 20.2158 11.998 20.169 11.9147 20.0856C11.8313 20.0023 11.7845 19.8892 11.7845 19.7713C11.7845 19.6535 11.8313 19.5404 11.9147 19.4571L18.6985 12.6732L13.486 12.6739C13.368 12.6739 13.2548 12.627 13.1714 12.5435C13.0879 12.4601 13.041 12.3469 13.041 12.2289C13.041 12.1108 13.0879 11.9976 13.1714 11.9142C13.2548 11.8307 13.368 11.7839 13.486 11.7839L19.7714 11.7839C19.8299 11.7838 19.8878 11.7952 19.9418 11.8176C19.9958 11.8399 20.0449 11.8727 20.0863 11.914C20.1276 11.9554 20.1604 12.0045 20.1827 12.0585C20.2051 12.1125 20.2165 12.1704 20.2164 12.2289Z" fill="black"/>
</svg>
