<svg width="32" height="32" viewBox="0 0 32 32" fill="none" xmlns="http://www.w3.org/2000/svg">
<g clip-path="url(#clip0_204_1139)">
<path d="M27.1803 14.5704C28.0736 15.001 28.0736 16.2729 27.1803 16.7035L12.2892 23.8738C11.323 24.3383 10.2857 23.3819 10.6708 22.3817L12.9988 16.3282L18.2431 16.3276C18.422 16.3213 18.5915 16.2457 18.7159 16.1169C18.8402 15.9881 18.9097 15.816 18.9097 15.6369C18.9097 15.4579 18.8402 15.2858 18.7159 15.157C18.5915 15.0282 18.422 14.9526 18.2431 14.9463L12.9988 14.9457L10.6708 8.89216C10.2864 7.89138 11.3237 6.93622 12.2892 7.40012L27.1803 14.5704Z" fill="white"/>
</g>
<defs>
<clipPath id="clip0_204_1139">
<rect width="22.1142" height="22.1142" fill="white" transform="translate(15.6371) rotate(45)"/>
</clipPath>
</defs>
</svg>
