<svg width="14" height="18" viewBox="0 0 14 18" fill="none" xmlns="http://www.w3.org/2000/svg">
<path d="M8.3895 13.4864C8.0465 13.1434 7.875 12.7313 7.875 12.25C7.875 11.7688 8.0465 11.3569 8.3895 11.0145C8.7325 10.6721 9.14433 10.5006 9.625 10.5C10.1057 10.4994 10.5178 10.6709 10.8614 11.0145C11.205 11.3581 11.3762 11.7699 11.375 12.25C11.3738 12.7301 11.2026 13.1422 10.8614 13.4864C10.5201 13.8305 10.108 14.0017 9.625 14C9.142 13.9983 8.73017 13.827 8.3895 13.4864ZM6.125 17.5V16.9969C6.125 16.3552 6.44583 15.841 7.0875 15.4543C7.72917 15.0675 8.575 14.8744 9.625 14.875C10.675 14.8756 11.5208 15.069 12.1625 15.4551C12.8042 15.8413 13.125 16.3552 13.125 16.9969V17.5H6.125ZM8.75 8.75H7V4.375C7 3.63125 6.7375 3.00796 6.2125 2.50513C5.6875 2.00229 5.075 1.75058 4.375 1.75C3.675 1.74942 3.0625 2.00113 2.5375 2.50513C2.0125 3.00913 1.75 3.63242 1.75 4.375V13.125C1.75 13.825 2.0125 14.4375 2.5375 14.9625C3.0625 15.4875 3.675 15.75 4.375 15.75V17.5C3.13542 17.5 2.0965 17.0809 1.25825 16.2426C0.42 15.4044 0.000583333 14.3652 0 13.125V4.375C0 3.13542 0.419416 2.0965 1.25825 1.25825C2.09708 0.420001 3.136 0.000583941 4.375 6.07639e-07C5.614 -0.000582726 6.65321 0.418834 7.49262 1.25825C8.33204 2.09767 8.75117 3.13658 8.75 4.375V8.75ZM5.61137 6.4855C5.95379 6.14367 6.125 5.73183 6.125 5.25C6.125 4.76817 5.95379 4.35633 5.61137 4.0145C5.26896 3.67267 4.85683 3.50117 4.375 3.5C3.89317 3.49883 3.48133 3.67033 3.1395 4.0145C2.79767 4.35867 2.62617 4.7705 2.625 5.25C2.62383 5.7295 2.79533 6.14163 3.1395 6.48638C3.48367 6.83113 3.8955 7.00233 4.375 7C4.8545 6.99767 5.26662 6.82646 5.61137 6.48638M3.13862 13.4864C3.48162 13.8288 3.89375 14 4.375 14C4.85625 14 5.26837 13.8288 5.61137 13.4864C5.95438 13.144 6.12558 12.7318 6.125 12.25C6.12442 11.7682 5.95321 11.3563 5.61137 11.0145C5.26954 10.6727 4.85742 10.5012 4.375 10.5C3.89258 10.4988 3.48075 10.6703 3.1395 11.0145C2.79825 11.3587 2.62675 11.7705 2.625 12.25C2.62325 12.7295 2.79475 13.1416 3.1395 13.4864M3.74062 12.852C3.58021 12.6694 3.5 12.4688 3.5 12.25C3.5 12.0313 3.58021 11.8309 3.74062 11.6489C3.90104 11.4669 4.1125 11.3756 4.375 11.375C4.6375 11.3744 4.84896 11.4546 5.00938 11.6156C5.16979 11.7766 5.25 11.9881 5.25 12.25C5.25 12.4688 5.16979 12.6694 5.00938 12.852C4.84896 13.0346 4.6375 13.1256 4.375 13.125C4.1125 13.1244 3.90104 13.0334 3.74062 12.852Z" fill="#4A4A4A"/>
</svg>
